<svg width="293" height="188" xmlns="http://www.w3.org/2000/svg" xmlns:xlink="http://www.w3.org/1999/xlink">
 <defs>
  <linearGradient id="imagebot_49">
   <stop stop-color="rgb(0, 0, 0)" id="imagebot_61" offset="0"/>
   <stop stop-color="rgb(0, 0, 0)" id="imagebot_60" offset="1"/>
  </linearGradient>
  <radialGradient gradientTransform="matrix(1 0 0 1 75.5275 18.0396)" gradientUnits="userSpaceOnUse" r="38.55332" fy="345.81219" fx="225.49467" cy="345.81219" cx="225.49467" id="imagebot_44" xlink:href="#imagebot_49"/>
 </defs>
 <g id="imagebot_2">
  <g transform="matrix(1 0 0 1 -6.746 -8.064)" id="imagebot_20">
   <path d="M249.28,118.76C249.718,120.994 248.399,123.14 246.332,123.545C244.264,123.949 242.229,122.46 241.792,120.226C241.751,120.015 241.724,119.807 241.715,119.599C241.611,117.6 242.87,115.806 244.745,115.44C246.296,115.136 247.823,115.897 248.678,117.24C248.968,117.7 249.178,118.21 249.288,118.77L249.28,118.76z" id="imagebot_37"/>
   <path fill="#F2E512" d="M244.46,109.99C246.819,114.374 248.216,115.906 248.968,117.096L248.678,117.243C247.824,115.9 246.296,115.139 244.745,115.443C242.87,115.809 241.61,117.603 241.715,119.602L241.146,119.645C240.873,116.064 240.36,113.071 239.575,110.291C240.057,110.06 240.574,109.891 241.113,109.785C242.233,109.555 243.373,109.645 244.453,109.985L244.46,109.99z" id="imagebot_36"/>
   <path fill="#FFFFFF" d="M238.83,78.385S239.968,121.381 281.517,131.445C281.517,131.445 300.235,136.425 288.671,137.779L284.303,138.702L293.275,140.517L288.292,145.132S270.451,139.981 250.611,152.508C247.66,154.373 244.959,156.216 242.449,158.014L241.804,157.112C244.234,155.394 247.609,150.258 248.602,135.159C248.79,132.284 248.974,129.923 249.133,127.971C251.064,125.705 251.951,122.174 251.231,118.493C250.4,114.243 247.661,110.99 244.458,109.988C244.065,109.259 243.648,108.455 243.199,107.555C235.189,91.48 236.037,70.965 236.037,70.965L236.041,70.964C237.091,73.349 238.021,75.818 238.831,78.39L238.83,78.385z" id="imagebot_35"/>
   <path fill="#F2E512" d="M249.13,127.97C248.971,129.921 248.786,132.283 248.599,135.158C247.606,150.257 244.231,155.393 241.801,157.111C240.293,158.174 239.151,157.934 239.151,157.934S240.661,149.336 241.224,134.782C241.287,133.105 241.336,131.521 241.362,130.024C242.567,130.488 243.855,130.628 245.138,130.377C246.718,130.077 248.078,129.207 249.128,127.977L249.13,127.97z" id="imagebot_34"/>
   <path fill="#F2E512" d="M248.97,117.1C250.071,118.841 249.796,119.859 249.138,127.976C248.087,129.21 246.723,130.074 245.146,130.382C243.863,130.633 242.575,130.493 241.37,130.029C241.445,126.019 241.377,122.63 241.148,119.649L241.717,119.606C241.726,119.814 241.753,120.022 241.794,120.233C242.232,122.467 244.266,123.957 246.334,123.552C248.401,123.147 249.72,121.001 249.282,118.767C249.172,118.205 248.963,117.692 248.679,117.246L248.959,117.086L248.97,117.1z" id="imagebot_33"/>
   <path fill="#F2E512" d="M236.04,70.966S235.192,91.481 243.202,107.556C243.651,108.455 244.068,109.26 244.461,109.989C243.379,109.646 242.244,109.563 241.113,109.785C240.574,109.89 240.057,110.059 239.575,110.291C239.147,108.76 238.635,107.3 238.03,105.839C235.184,98.949 230.084,62.088 227.444,56.618L236.054,70.955L236.04,70.966z" id="imagebot_32"/>
   <path fill="#F2E512" d="M227.23,56.235C227.3,56.335 227.372,56.467 227.442,56.617L227.15,56.128C227.18,56.163 227.2,56.199 227.23,56.235z" id="imagebot_31"/>
   <path fill="#FFFFFF" d="M213.3,42.393C218.465,46.423 223.133,50.977 227.148,56.128L227.44,56.617C230.08,62.087 235.18,98.948 238.026,105.838C238.63,107.299 239.143,108.759 239.571,110.29C236.028,111.947 234.04,116.663 235.019,121.667C235.813,125.725 238.349,128.872 241.364,130.024C241.339,131.521 241.289,133.105 241.226,134.782C240.663,149.337 239.153,157.934 239.153,157.934S240.296,158.174 241.803,157.111L242.448,158.013C228.089,168.276 220.072,176.868 208.217,177.638C206.115,177.777 202.349,178.081 197.408,178.526L197.407,178.521C234.787,151.319 221.26,114.124 221.228,79.105C221.198,54.417 216.228,45.504 213.288,42.394L213.3,42.393z" id="imagebot_30"/>
   <path fill="#FFFFFF" d="M152.7,19.357C154.257,19.594 205.176,27.514 206.907,47.784C208.661,68.367 214.28,124.589 203.571,154.894C192.861,185.196 192.022,176.261 178.972,176.997C165.923,177.731 161.243,177.738 158.899,178.196L156.55,178.656L154.274,178.647S165.657,170.049 167.972,132.747C170.292,95.462 187.802,25.947 152.702,19.367L152.7,19.357z" id="imagebot_29"/>
   <path fill="#FBEA28" d="M144.21,157.41S163.223,68.616 156.248,39.95C149.273,11.29 102.325,15.476 102.325,15.476C127.529,18.731 119.12,40.849 116.349,54.584S106.744,112.421 106.574,150.897C106.454,177.961 104.578,183.647 103.476,184.64C103.213,184.646 102.949,184.643 102.684,184.641C102.684,184.641 103.011,185.054 103.476,184.64C150.166,184.71 144.206,157.41 144.206,157.41L144.21,157.41zM206.91,47.78C205.18,27.51 154.26,19.59 152.703,19.353C187.802,25.935 170.288,95.451 167.975,132.743C165.66,170.046 154.277,178.643 154.277,178.643L156.553,178.652L158.902,178.192C161.246,177.734 165.926,177.727 178.975,176.993C192.025,176.258 192.864,185.192 203.574,154.89C214.284,124.58 208.664,68.357 206.914,47.77zM197.41,178.53C169.615,181 104.683,187.651 90.39,191.608C73.56,196.267 38.402,186.317 47.715,157.198S65.447,124.611 65.447,124.611L68.968,125.587C69.531,127.506 70.36,129.141 71.553,130.24C77.659,135.869 79.787,172.302 79.787,172.302S79.683,176.417 83.292,171.616C86.901,166.815 85.471,134.34 85.471,134.34S83.332,97.454 86.979,83.547C90.625,69.64 80.927,43.333 80.263,37.617C79.6,31.906 76.497,34.647 76.497,34.647S69.03,40.658 72.89,60.375C75.724,74.855 72.194,92.052 70.12,100.164L69.226,99.761L61.873,99.381S56.251,82.284 56.838,45.775C56.838,45.775 57.563,30.166 49.772,24.412C41.976,18.659 61.702,12.523 77.114,12.236C89.122,12.014 166.698,8.07 211.204,40.812L211.209,40.815C211.915,41.332 212.61,41.86 213.298,42.398C216.232,45.509 221.206,54.421 221.226,79.111C221.257,114.13 234.785,151.325 197.405,178.527L197.415,178.547zM110.27,44.64C108.927,37.779 102.554,33.253 96.039,34.528S85.329,42.398 86.671,49.259C88.014,56.12 94.387,60.646 100.902,59.371S111.612,51.502 110.272,44.64z" id="imagebot_28"/>
   <path fill="#FFFFFF" d="M156.24,39.959C163.216,68.619 144.202,157.419 144.202,157.419S150.164,184.717 103.467,184.654C104.569,183.661 106.445,177.975 106.565,150.911C106.735,112.435 113.57,68.334 116.34,54.598S127.519,18.744 102.316,15.49C102.316,15.476 149.266,11.29 156.236,39.95L156.24,39.959z" id="imagebot_27"/>
   <path fill="#FFFFFF" d="M96.04,34.525C102.555,33.25 108.928,37.775 110.271,44.637S107.418,58.093 100.903,59.368S88.015,56.118 86.672,49.256C85.333,42.395 89.528,35.801 96.043,34.525L96.04,34.525zM108.11,45.06C106.95,39.132 101.89,35.131 96.808,36.126S88.548,42.733 89.708,48.662C90.868,54.59 95.928,58.59 101.01,57.596C106.09,56.601 109.27,50.988 108.11,45.06z" id="imagebot_26"/>
   <ellipse cx="98.91" cy="46.861" ry="9.376" transform="matrix(-.1921 -.9814 .9814 -.1921 71.923 152.93)" rx="10.938" id="imagebot_25"/>
   <path fill="#FFFFFF" d="M76.501,34.643S79.604,31.902 80.267,37.613C80.931,43.329 90.63,69.636 86.983,83.543S85.475,134.336 85.475,134.336S86.905,166.812 83.296,171.612C79.686,176.413 79.791,172.298 79.791,172.298S77.664,135.865 71.557,130.236C70.364,129.136 69.535,127.502 68.972,125.583L70.261,125.94S69.909,125.236 68.741,124.727C66.783,116.767 68.811,104.842 68.811,104.842S69.37,103.095 70.124,100.158C72.198,92.046 75.728,74.849 72.894,60.369C69.034,40.631 76.501,34.621 76.501,34.621L76.501,34.643z" id="imagebot_24"/>
   <path fill="#FBEA28" d="M61.877,99.376L69.23,99.756L70.124,100.159C69.37,103.096 68.811,104.843 68.811,104.843S66.783,116.768 68.741,124.728C67.438,124.16 65.118,123.836 61.133,124.999L60.888,124.164C62.383,123.713 62.27,121.137 62.27,121.137S64.021,110.331 62.907,104.635C62.275,101.406 61.807,99.341 61.037,98.896L61.04,98.891C61.308,99.056 61.59,99.219 61.877,99.381L61.877,99.376z" id="imagebot_23"/>
   <path d="M61.037,98.895C61.807,99.34 62.274,101.405 62.907,104.634C64.022,110.33 62.27,121.136 62.27,121.136S62.383,123.712 60.888,124.163C60.411,124.307 59.775,124.24 58.927,123.81C58.927,123.81 55.903,105.017 58.544,100.938C59.689,99.17 60.448,98.558 61.037,98.893L61.037,98.895z" id="imagebot_22"/>
   <path fill="#F0F1F1" d="M41.767,71.013C52.613,90.722 54.567,94.989 61.04,98.89L61.037,98.895C60.448,98.56 59.69,99.172 58.543,100.939C55.902,105.018 58.926,123.811 58.926,123.811C59.774,124.241 60.41,124.307 60.887,124.164L61.132,124.999C58.434,125.786 54.974,127.26 50.544,129.801C33.72,139.464 16.056,148.836 16.056,148.836S6.751,154.752 9.366,114.66C11.982,74.569 22.458,60.69 22.458,60.69S30.468,50.478 41.767,71.013z" id="imagebot_21"/>
  </g>
  <path transform="matrix(1 0 0 1 -6.746 -8.064)" fill="none" stroke-width="0.25" d="M236.04,70.966S235.192,91.481 243.202,107.556C243.651,108.455 244.068,109.26 244.461,109.989C246.82,114.373 248.217,115.905 248.969,117.095C250.07,118.836 249.795,119.854 249.137,127.971C248.978,129.922 248.793,132.284 248.606,135.159C247.613,150.258 244.238,155.394 241.808,157.112C240.3,158.175 239.158,157.935 239.158,157.935S240.668,149.337 241.231,134.783C241.294,133.106 241.343,131.522 241.369,130.025C241.444,126.015 241.376,122.626 241.147,119.645C240.874,116.064 240.361,113.071 239.576,110.291C239.148,108.76 238.636,107.3 238.031,105.839C235.185,98.949 230.085,62.088 227.445,56.618C227.375,56.468 227.303,56.336 227.233,56.236" stroke="#BD9D09" id="imagebot_19"/>
  <ellipse fill="none" stroke-width="0.25" cx="98.472" stroke="#000000" transform="matrix(0.9814 -0.1921 0.1921 0.9814 -13.9303 11.726)" cy="46.947" rx="12.023" ry="12.657" id="imagebot_18"/>
  <path fill="none" stroke-width="0.25" d="M 204.46400018692017 32.74499987030029 C 205.17000018692016 33.26199987030029 205.86500018692016 33.78999987030029 206.55300018692017 34.327999870300296 C 211.71800018692016 38.35799987030029 216.38600018692017 42.91199987030029 220.40100018692016 48.062999870300295 C 220.43100018692016 48.09799987030029 220.45700018692017 48.13399987030029 220.48100018692017 48.169999870300295 C 223.94700018692018 52.623999870300295 226.91600018692017 57.519999870300296 229.29300018692015 62.89999987030029 C 230.34100018692016 65.2789998703003 231.27500018692015 67.7489998703003 232.08300018692017 70.3199998703003 C 232.08300018692017 70.3199998703003 233.22100018692018 113.31599987030029 274.7700001869202 123.37999987030028 C 274.7700001869202 123.37999987030028 293.48800018692015 128.3599998703003 281.9240001869202 129.71399987030028 L 277.5560001869202 130.6369998703003 L 286.52800018692017 132.45199987030028 L 281.54500018692016 137.0669998703003 S 263.70400018692015 131.91599987030028 243.86400018692018 144.4429998703003 C 240.91300018692016 146.3079998703003 238.21200018692016 148.1509998703003 235.70200018692017 149.9489998703003 C 221.34300018692016 160.2119998703003 213.32600018692017 168.8039998703003 201.47100018692018 169.5739998703003 C 199.36900018692018 169.71299987030028 195.60300018692016 170.01699987030028 190.66200018692015 170.4619998703003 C 162.86700018692017 172.9319998703003 97.93500018692016 179.58299987030028 83.64200018692017 183.5399998703003 C 66.81200018692017 188.1989998703003 31.654000186920165 178.24899987030028 40.96700018692017 149.12999987030028 S 58.69900018692016 116.54299987030029 58.69900018692016 116.54299987030029 L 62.22000018692016 117.51899987030029 L 63.50900018692016 117.87599987030029 S 63.15700018692017 117.1719998703003 61.989000186920165 116.6629998703003 C 60.68600018692017 116.0949998703003 58.36600018692016 115.77099987030029 54.38100018692017 116.9339998703003 C 51.68300018692017 117.72099987030029 48.22300018692017 119.1949998703003 43.79300018692017 121.7359998703003 C 26.96900018692017 131.3989998703003 9.305000186920164 140.7709998703003 9.305000186920164 140.7709998703003 S 1.869201664561615e-7 146.6869998703003 2.6150001869201667 106.5949998703003 C 5.231000186920166 66.50399987030029 15.707000186920165 52.62499987030029 15.707000186920165 52.62499987030029 S 23.716000186920166 42.41299987030029 35.01500018692017 62.94799987030029 C 45.861000186920165 82.6569998703003 47.815000186920166 86.92399987030029 54.288000186920165 90.82499987030029 C 54.556000186920166 90.98599987030029 54.83800018692017 91.14899987030029 55.12500018692017 91.3109998703003 C 55.12500018692017 91.3109998703003 49.50300018692017 74.2139998703003 50.090000186920165 37.70499987030029 C 50.090000186920165 37.70499987030029 50.815000186920166 22.095999870300293 43.02400018692017 16.34199987030029 C 35.22800018692016 10.588999870300292 54.95400018692017 4.452999870300292 70.36600018692016 4.165999870300293 C 82.37400018692017 3.943999870300292 159.95000018692016 -1.2969970697440658e-7 204.45600018692016 32.74199987030029" stroke="#000000" id="imagebot_17"/>
  <line transform="matrix(1 0 0 1 -6.746 -8.064)" fill="none" stroke-width="0.25" y1="99.376" stroke="#000000" x2="69.23" x1="61.877" y2="99.756" id="imagebot_16"/>
  <ellipse fill="none" stroke-width="0.25" cx="98.91" stroke="#000000" transform="matrix(0.9814 -0.1921 0.1921 0.9814 -13.9058 11.809)" cy="46.861" rx="9.376" ry="10.938" id="imagebot_13"/>
  <path transform="matrix(1 0 0 1 -6.746 -8.064)" fill="none" stroke-width="0.25" d="M70.124,100.16C72.198,92.048 75.728,74.851 72.894,60.371C69.035,40.654 76.501,34.643 76.501,34.643S79.604,31.902 80.267,37.613C80.931,43.329 90.63,69.636 86.983,83.543S85.475,134.336 85.475,134.336S86.905,166.812 83.296,171.612C79.686,176.413 79.791,172.298 79.791,172.298S77.664,135.865 71.557,130.236C70.364,129.136 69.535,127.502 68.972,125.583C68.886,125.305 68.811,125.019 68.741,124.728C66.783,116.768 68.811,104.843 68.811,104.843S69.37,103.083 70.124,100.143L70.124,100.16z" stroke="#BD9D09" id="imagebot_12"/>
  <path transform="matrix(1 0 0 1 -6.746 -8.064)" fill="none" stroke-width="0.25" d="M60.888,124.16C60.411,124.304 59.775,124.237 58.927,123.807C58.927,123.807 55.903,105.014 58.544,100.935C59.69,99.168 60.449,98.556 61.038,98.891C61.808,99.336 62.275,101.401 62.908,104.63C64.023,110.326 62.271,121.132 62.271,121.132S62.382,123.702 60.888,124.152L60.888,124.16z" stroke="#FFFFFF" id="imagebot_11"/>
  <path transform="matrix(1 0 0 1 -6.746 -8.064)" fill="none" stroke-width="0.25" d="M152.7,19.357C154.257,19.594 205.176,27.514 206.907,47.784C208.661,68.367 214.28,124.589 203.571,154.894C192.861,185.196 192.022,176.261 178.972,176.997C165.923,177.731 161.243,177.738 158.899,178.196L156.55,178.656L154.274,178.647S165.657,170.049 167.972,132.747C170.292,95.462 187.802,25.947 152.702,19.367L152.7,19.357z" stroke="#BD9D09" id="imagebot_10"/>
  <path transform="matrix(1 0 0 1 -6.746 -8.064)" fill="none" stroke-width="0.25" d="M152.7,19.357C152.696,19.358 152.69,19.355 152.686,19.356C152.672,19.354 152.663,19.352 152.663,19.352" stroke="#BD9D09" id="imagebot_9"/>
  <path transform="matrix(1 0 0 1 -6.746 -8.064)" fill="none" stroke-width="0.25" d="M103.47,184.65C103.207,184.656 102.943,184.653 102.678,184.651C102.678,184.651 103.008,185.061 103.468,184.651L103.47,184.65z" stroke="#BD9D09" id="imagebot_8"/>
  <path transform="matrix(1 0 0 1 -6.746 -8.064)" fill="none" stroke-width="0.25" d="M103.47,184.65C104.572,183.657 106.448,177.971 106.568,150.907C106.738,112.431 113.573,68.33 116.343,54.594S127.522,18.74 102.319,15.486S149.267,11.3 156.242,39.96C163.218,68.62 144.204,157.42 144.204,157.42S150.174,184.71 103.474,184.65L103.47,184.65z" stroke="#BD9D09" id="imagebot_7"/>
  <path transform="matrix(1 0 0 1 -6.746 -8.064)" fill="none" stroke-width="0.25" d="M211.21,40.809C211.273,40.829 212.121,41.14 213.299,42.392C216.233,45.503 221.207,54.415 221.227,79.105C221.258,114.124 234.786,151.319 197.406,178.521" stroke="#FFFFFF" id="imagebot_6"/>
  <line transform="matrix(1 0 0 1 -6.746 -8.064)" fill="none" stroke-width="0.25" y1="40.806" stroke="#000000" x2="211.21" x1="211.21" y2="40.809" id="imagebot_5"/>
  <title>imagebot_2</title>

  <metadata id="imagebot_48">image/svg+xmllogoabril 2011M Mlogolentesglassesverdeblancogrisnegrologo de un website</metadata>
  <path transform="matrix(0.374169 0 0 0.374169 120.998 -18.8161)" label="Capa 1" fill="rgb(255, 255, 255)" stroke="url(#imagebot_44)" stroke-width="5.7" stroke-miterlimit="4" stroke-opacity="0.61497" d="M 336.7254963378906 363.85179037231444 C 336.7254963378906 383.57020037231445 320.7405763378906 399.55512037231443 301.02216633789067 399.55512037231443 C 281.30376633789064 399.55512037231443 265.3188463378906 383.57020037231445 265.3188463378906 363.85179037231444 C 265.3188463378906 344.13339037231447 281.30376633789064 328.1484703723145 301.02216633789067 328.1484703723145 C 320.7405763378906 328.1484703723145 336.7254963378906 344.13339037231447 336.7254963378906 363.85179037231444 z" id="imagebot_43"/>
  <path label="Capa 1" opacity="0.83857" fill="rgb(0, 0, 0)" id="imagebot_41" d="M244.28591,306.53854C244.28591,313.28431 238.48085,318.75284 231.31996,318.75284C224.15907,318.75284 218.35402,313.28431 218.35402,306.53854C218.35402,299.79277 224.15907,294.32425 231.31996,294.32425C238.48085,294.32425 244.28591,299.79277 244.28591,306.53854z" transform="translate(-2 -2) matrix(0.379591 0 0 0.379591 148.637 3.21727)"/>
 </g>
 <metadata>image/svg+xmlOpencliparttropical fish2012-09-11T16:26:21https://openclipart.org/detail/172296/tropical-fish-by-presquesage-172296presquesagepoisson tropicaltropical fish</metadata>
</svg>