<svg width="414" height="251" xmlns="http://www.w3.org/2000/svg" xmlns:xlink="http://www.w3.org/1999/xlink">
 <defs>
  <linearGradient x1="-0.02162" y1="0.29278" x2="1.00733" y2="-0.00909" id="imagebot_8">
   <stop stop-color="#ad4005" offset="0" id="imagebot_16"/>
   <stop stop-color="#e26a1d" offset="1" id="imagebot_15"/>
  </linearGradient>
  <linearGradient x1="-0.00311" y1="0.39589" x2="1.00338" y2="0.84562" id="imagebot_11">
   <stop stop-color="#bd5007" offset="0" id="imagebot_14"/>
   <stop stop-color="#8a1c01" offset="1" id="imagebot_13"/>
  </linearGradient>
  <linearGradient id="imagebot_28">
   <stop stop-color="rgb(0, 0, 0)" id="imagebot_40" offset="0"/>
   <stop stop-color="rgb(0, 0, 0)" id="imagebot_39" offset="1"/>
  </linearGradient>
  <radialGradient gradientTransform="matrix(1 0 0 1 75.5275 18.0396)" gradientUnits="userSpaceOnUse" r="38.55332" fy="345.81219" fx="225.49467" cy="345.81219" cx="225.49467" id="imagebot_23" xlink:href="#imagebot_28"/>
 </defs>
 <g label="Ebene 1" id="imagebot_2">
  <path transform="matrix(9.3733 0 0 9.3535 -2182.2 -1652.2)" label="Ebene 1" fill-rule="evenodd" stroke="#000000" stroke-width="0.27167" fill="#942700" d="M243.19,194.62C242.83,198.34 252.12,201.64 248.23,195.15" id="imagebot_12"/>
  <path transform="matrix(9.3733 0 0 9.3535 -2182.2 -1652.2)" label="Ebene 1" stroke-linejoin="round" fill-rule="evenodd" stroke="#000000" stroke-linecap="round" stroke-width="0.27167" fill="url(#imagebot_11)" d="M234.12,185.01C235.45,182.86 242.62,180.68 247.46,180.08C251.72,176.64 253.44,178.96 254.98,181.49C258.53,183.6 260.34,182.58 261,182.7C265.25,183.47 266.45,186.98 264.19,189.21C267.61,191.42 276.94,187.83 274.33,195.8C271.81,203.46 266.39,195.67 261.76,194.79C264.08,198.78 255.96,198.03 253.12,195.76C243.14,196.02 237.93,194.02 233.47,188.59C232.81,187.78 233.34,186.27 234.12,185.01z" id="imagebot_10"/>
  <path transform="matrix(9.3733 0 0 9.3535 -2182.2 -1652.2)" label="Ebene 1" stroke-linejoin="round" fill-rule="evenodd" stroke="#000000" stroke-linecap="round" stroke-width="0.27167" fill="#ffffff" d="M254.81,181.31C255.71,184.93 250.66,185.94 250.07,188.87C250.91,191.16 251.49,193.36 250.7,195.75C251.65,195.79 252.47,195.72 253.18,195.72C253.48,196.01 253.8,196.28 254.29,196.42C252.98,193.06 257.86,183.21 260.97,182.69C258.24,182.92 256.63,182.53 254.81,181.31zM240.73,181.55C239.93,181.78 239.16,182.04 238.43,182.36C242.43,184.34 242.6,190.07 237.11,192.09C237.64,192.48 238.15,192.87 238.85,193.18C244.7,192.52 246.09,183.95 240.73,181.55zM264.19,189.37C263.24,190.82 262.16,192.76 261.83,194.71C263.14,195.32 265.07,196.1 266.26,196.91C264.93,194.35 267.27,190.42 269.48,190.16C267.9,189.99 265.82,190.02 264.19,189.37z" id="imagebot_9"/>
  <path transform="matrix(9.3733 0 0 9.3535 -2182.2 -1652.2)" label="Ebene 1" stroke-linejoin="round" fill-rule="evenodd" stroke="#000000" stroke-linecap="round" stroke-width="0.27167" fill="url(#imagebot_8)" d="M245.35,190.34C247.49,189.27 252.57,187.78 252.85,190.13C253.32,194.07 246.02,197.14 245.1,193.18" id="imagebot_7"/>
  <path transform="matrix(9.3733 0 0 9.3535 -2182.2 -1652.2)" label="Ebene 1" fill-rule="evenodd" fill="#000000" d="M251.12,178.39C250.09,178.37 248.93,178.88 247.6,180.04C251.59,178.33 252.75,178.51 254.83,181.34C253.84,179.54 252.63,178.41 251.12,178.39zM260.89,182.75C263.05,183.47 266.51,185.59 264.13,189.14C267.51,186.35 264.35,183.39 260.89,182.75zM250.8,188.96C250.41,188.95 249.97,188.99 249.46,189.07C254.6,188.96 251.82,193.51 249.49,194.53C251.34,194.44 255.32,189 250.8,188.96zM271.57,190.44C274.18,191.55 274.57,193.44 273.6,196.14C272.64,198.82 270.24,199 268.11,198.15C270.22,199.16 272.34,200.17 274.13,196.53C275.36,193.31 274.97,190.95 271.57,190.44zM261.82,194.83C262.58,198.23 256.89,197.38 254.86,196.67C257.87,197.99 263.27,198.44 261.82,194.83zM254.86,196.67C254.62,196.56 254.4,196.46 254.2,196.34C254.29,196.43 254.53,196.55 254.86,196.67z" id="imagebot_5"/>
  <path transform="matrix(9.3733 0 0 9.3535 -2182.2 -1652.2)" label="Ebene 1" stroke-linejoin="round" stroke="#000000" stroke-linecap="round" stroke-width="0.27167" fill="none" d="M233.25,188.23C233.98,188.89 234.71,188.71 235.44,188.63" id="imagebot_4"/>
  <title>Ebene 1</title>

  <metadata id="imagebot_27">image/svg+xmllogoabril 2011M Mlogolentesglassesverdeblancogrisnegrologo de un website</metadata>
  <path transform="matrix(0.528689 0 0 0.528689 -114.76 -100.47)" label="Capa 1" fill="rgb(255, 255, 255)" stroke="url(#imagebot_23)" stroke-width="5.7" stroke-miterlimit="4" stroke-opacity="0.61497" d="M 336.7254963378906 363.85179037231444 C 336.7254963378906 383.57020037231445 320.7405763378906 399.55512037231443 301.02216633789067 399.55512037231443 C 281.30376633789064 399.55512037231443 265.3188463378906 383.57020037231445 265.3188463378906 363.85179037231444 C 265.3188463378906 344.13339037231447 281.30376633789064 328.1484703723145 301.02216633789067 328.1484703723145 C 320.7405763378906 328.1484703723145 336.7254963378906 344.13339037231447 336.7254963378906 363.85179037231444 z" id="imagebot_22"/>
  <path label="Capa 1" opacity="0.83857" fill="rgb(0, 0, 0)" id="imagebot_20" d="M244.28591,306.53854C244.28591,313.28431 238.48085,318.75284 231.31996,318.75284C224.15907,318.75284 218.35402,313.28431 218.35402,306.53854C218.35402,299.79277 224.15907,294.32425 231.31996,294.32425C238.48085,294.32425 244.28591,299.79277 244.28591,306.53854z" transform="matrix(0.53635 0 0 0.53635 -75.7078 -69.338)"/>
 </g>
 <metadata>image/svg+xmlOpenclipartanemonenfisch2012-07-17T19:33:18https://openclipart.org/detail/171242/anemonenfisch-by-marauder-171242marauderanemonenfischanimalfischsea</metadata>
</svg>