<svg xmlns="http://www.w3.org/2000/svg" xmlns:xlink="http://www.w3.org/1999/xlink" width="100%" viewBox="0 0 4000 3000">
    <defs>
        <filter id="o" color-interpolation-filters="sRGB">
            <feGaussianBlur stdDeviation="2.548"/>
        </filter>
        <radialGradient id="n" xlink:href="#a" gradientUnits="userSpaceOnUse" cy="800.04" cx="2148.6" gradientTransform="matrix(1.5833 .34318 -.27122 1.2513 -3433.3 1111.4)" r="47.01"/>
        <linearGradient id="a">
            <stop offset="0" stop-color="#fff"/>
            <stop offset="1" stop-color="#154e73"/>
        </linearGradient>
        <radialGradient id="m" xlink:href="#a" gradientUnits="userSpaceOnUse" cy="761.56" cx="3824.4" gradientTransform="matrix(2.0112 .70814 -.36344 1.0322 -7719.9 -669.54)" r="25.549"/>
        <radialGradient id="l" xlink:href="#a" gradientUnits="userSpaceOnUse" cy="763.81" cx="3773.8" gradientTransform="matrix(1.2737 .94591 -.61407 .82686 -4693.1 -1370.4)" r="32.713"/>
        <radialGradient id="k" xlink:href="#a" gradientUnits="userSpaceOnUse" cy="805.38" cx="3037.9" gradientTransform="matrix(1 0 0 .61362 -4129.3 2374.4)" r="100.92"/>
        <filter id="j" width="1.053" y="-.147" x="-.026" height="1.294" color-interpolation-filters="sRGB">
            <feGaussianBlur stdDeviation=".991"/>
        </filter>
        <filter id="i" color-interpolation-filters="sRGB">
            <feGaussianBlur stdDeviation=".991"/>
        </filter>
        <filter id="h" color-interpolation-filters="sRGB">
            <feGaussianBlur stdDeviation=".991"/>
        </filter>
        <filter id="g" color-interpolation-filters="sRGB">
            <feGaussianBlur stdDeviation=".991"/>
        </filter>
        <filter id="f" color-interpolation-filters="sRGB">
            <feGaussianBlur stdDeviation=".991"/>
        </filter>
        <linearGradient id="e" y2="823.6" gradientUnits="userSpaceOnUse" x2="1701.6" gradientTransform="translate(-4129.3 2063.2)" y1="728.9" x1="1571.7">
            <stop offset="0" stop-color="#154e73"/>
            <stop offset="1" stop-color="#154e73" stop-opacity="0"/>
        </linearGradient>
        <linearGradient id="d" y2="1117.5" gradientUnits="userSpaceOnUse" y1="389.19" gradientTransform="translate(-4129.3 2063.2)" x2="1870.9" x1="1868.6">
            <stop offset="0" stop-color="#154e73"/>
            <stop offset="1" stop-color="#fff"/>
        </linearGradient>
        <linearGradient id="b">
            <stop offset="0" stop-color="#154e73"/>
            <stop offset="1" stop-color="#154e73" stop-opacity="0"/>
        </linearGradient>
        <linearGradient id="c" y2="-1.6" gradientUnits="userSpaceOnUse" x2="2315.3" gradientTransform="matrix(.96746 0 0 .97692 7.949 0)" y1="3069.4" x1="2299.2">
            <stop offset="0" stop-color="#50adcb"/>
            <stop offset="1" stop-color="#fff"/>
        </linearGradient>
    </defs>
    <rect rx="75.189" ry="82.855" height="2997" width="4021.7" y="0" x="1.714" color="#000" fill="url(#c)"/>
    <path d="M-4092.9 2768.5c163.63-53.128 324.94 46.327 468.71-4.04 174.44-61.11 362.06 31.214 541.44-12.123 46.948-11.342 105.91-26.589 218.19 8.082 180.73 55.807 159.59 23.549 258.6 0 89.607-21.312 180.93-24.908 242.44 0 113.15 45.818 260.41 24.144 315.17 12.122 86.133-18.912 179.52-21.29 270.72 0 134.88 31.488 164.87 6.578 218.19-12.122 72.028-25.261 140.26-23.913 210.11-20.203 132.5 7.038 261.35 93.36 400.02 32.325 96.362-42.413 228.4 19.12 242.44 4.04 18.077-19.415 259.27-35.966 379.82-8.081 80.895 18.713 167.01 16.962 250.52-8.081l.982 268.56-4025.1-8.572 7.794-251.9z" fill="url(#d)" transform="translate(4100.7 -19.29)"/>
    <path d="M246.2 2842.11c-7.484-10.242 8.637-35.999 35.355-91.924 11.462-36.702 5.69-73.404-23.234-110.11-30.582-32.561-67.915-38.122-88.893-109.1 1.414-33.132 12.092-23.038 21.213-20.203 11.875 23.454-17.396 18.819 25.254 67.68 19.764 22.642 44.136 34.112 60.609 53.538 8.125 9.58 2.946-50.241-7.071-58.589-10.366-33.77-22.298-58.143-35.355-75.762-22.01-42.957-30.32-76.782-36.366-109.1-.226-28.659 18.475-48.766 27.274-26.264-1.511 33.705-.71 66.947 11.112 97.985 11.274 25.8 12.457 24.689 16.162 30.305 1.563-29.127 7.138-30.17 11.112-42.426 21.014-39.826 30.057-25.415 34.345-22.223 10.376 26.173-7.554 37.852-12.122 52.528-13.708 41.1 7.98 72.086 12.122 108.09 33.406 110.4 14.167 82.497 16.162 138.39 6.427-15.182 6.185-23.694 22.223-48.487 14.759-22.911 27.487-46.33 52.528-66.67 15.499-20.407 28.948-42.096 23.234-75.762-9.89-36.951-5.547-45.439 6.06-39.396 5.04 12.663 8.686 8.59 16.163 50.508 3.049 12.777 2.643 29.008-5.051 52.528 10.788-15.628 6.758-11.846 30.305-42.426 17.096-10.878 43.208-35.031 48.487 3.03 20.305 3.082-9.559 21.882-39.396 43.437-.697 3.054-17.018 21.732-36.366 43.436-16.382 13.813-6.091 16.512-51.518 42.426-14.176 7.678-28.999 14.06-35.355 37.376-5.686 37.9-27.796 72.801-12.122 114.15 3.882 10.24-44.084-29.152-57.579 19.193-2.64 9.456-16.948 12.571-29.294-16.162z" fill="#154e73"/>
    <path d="M1090.7 2818.91c12.947-7.277 23.391-20.397 28.284-46.467 15.64-90.088 27.081-101.34 37.376-110.11 14.241-25.232 38.232-49.977 1.01-77.782-74.503-56.659-40.593-99.159 1.01-110.11 42.205-15.025 53.158-28.396 56.57-40.406 10.418-36.695 17.602-21.674 24.243-14.142 26.598 32.594-10.957 52.357-35.355 74.751-44.08 17.509-83.342 35.019-32.325 52.528 30.118 19.659 75.46 47.402 24.244 111.12-31.223 38.843-40.12 72.347-41.416 105.06-5.683 38.346 69.407 63.225 40.406 74.751-26.937-3.052-44.867-30.843-76.772 0-9.217 8.91-36.31-.778-27.274-19.193z" color="#000" fill="#154e73"/>
    <path d="M-2556.5 2804.8c1.303 36.848 52.862 82.324 56.569 80.812 42.509-4.605 83.187-11.29 67.68-81.822-7.112-18.085-103.05-50.193-124.25 1.01z" stroke-linejoin="round" stroke="#154e73" stroke-linecap="round" stroke-width="2.3" fill="url(#e)" transform="translate(4100.7 -19.29)"/>
    <path d="M-2541.3 2801.8c19.235 20.329 61.026 61.309 50.508 71.721" stroke-linejoin="round" filter="url(#f)" stroke="#154e73" stroke-linecap="round" stroke-width="2.1" fill="none" transform="translate(4100.7 -19.29)"/>
    <path d="M-2541.3 2796.7c24.253 19.869 87.36 60.862 75.761 69.7" stroke-linejoin="round" filter="url(#g)" stroke="#154e73" stroke-linecap="round" stroke-width="2.1" fill="none" transform="translate(4100.7 -19.29)"/>
    <path d="M-2448.4 2854.3c-2.01-14.342-60.866-38.033-88.893-57.579 32.344 13.132 83.124 29.294 93.944 42.426" stroke-linejoin="round" filter="url(#h)" stroke="#154e73" stroke-linecap="round" stroke-width="2.1" fill="none" transform="translate(4100.7 -19.29)"/>
    <path d="M-2540.3 2794.7c39.112 10.768 83.456 17.979 102.03 31.315" stroke-linejoin="round" filter="url(#i)" stroke="#154e73" stroke-linecap="round" stroke-width="2.1" fill="none" transform="translate(4100.7 -19.29)"/>
    <path d="M-2531.2 2793.7c26.067 4.123 59.042-2.346 89.904 16.162" stroke-linejoin="round" filter="url(#j)" stroke="#154e73" stroke-linecap="round" stroke-width="2.1" fill="none" transform="translate(4100.7 -19.29)"/>
    <path d="M2219 2828.01c8.872 11.858 18.743 15.72 30.305 6.06 18.92-32.237 6.906-60.055 9.091-89.903-2.016-44.811-8.844-58.34-16.162-68.69-30.728-36.234-.209-60.985 8.082-89.904 25.356-63.734 19.274-92.332-1.01-105.06-9.786-18.323-22.448-23.798-29.295-20.203-5.532 16.516 11.673 19.729 14.143 32.325 24.403 50.267-.747 54.79-8.082 75.76-46.04 72.917-9.929 94.977-5.05 136.37 21.928 41.239 10.25 58.098 13.131 81.823-24.464 44.339-11.183 30.247-15.151 41.416zM2265.5 2848.21c.25 27.688 19.84 27.745 38.386 29.294.32-8.521-.242-15.458 13.132-47.477 9.142-9.988 8.52-41.944 7.071-75.761-13.015-41.455-27.84-83.733-12.122-112.13 2.38-29.265 20.655-37.334 7.071-87.883-12.608-24.841-17.516-18.882-25.254-24.244-15.8 10.441.497 24.449 7.071 37.376 2.976 14.916 6.114 29.734-4.04 52.528-10.134 17.444-23.65 28.124-13.132 86.873 3.03 25.744 25.336 25.202 2.02 86.873-3.777 22.618-1.45 54.393-20.203 54.548zM2346.3 2838.11c-20.467 3.488-12.684 10.114-10.102 16.162 12.214 6.796 24.542 13.246 39.396 12.122 9.381-9.475 13.17-24.543 9.091-47.477 10.908-73.935-29.162-57.212-5.05-101.02 12.596-23.313 9.218-43.963 6.06-64.65-20.174-42.22-27.138-40.404-31.314-29.294 1.157 19.951 6.555 22.941 10.102 33.335 9.022 30.679-.823 34.945-4.041 48.487-22.227 50.781-3.832 52.816-2.02 74.751-.19 26.345 5.7 63.979-12.122 57.579z" color="#000" fill="#154e73"/>
    <path d="M-1152.4 2873.5c-5.143 2.204-42.251-27.625-37.376-37.376 26.832-10.68 48.09-7.425 69.7-5.05 19.055-8.792 17.119-23.182 72.731-22.224 13.321 5.967 4.486 23.011 3.03 36.366 16.877 7.329 41.306-.45 50.509 22.223 7.202 10.228-21.903 16.422-36.365 24.244 4.933 17.253-1.602 25.904-7.072 35.355-32.082 6.748-43.596-13.929-60.609-27.274-20.832 6.04-26.15 4.32-62.63 18.183-35.823-.142-10.596-23.542 8.082-44.447z" stroke-linejoin="round" stroke="#154e73" stroke-linecap="round" stroke-width="4.3" fill="url(#k)" transform="translate(4100.7 -19.29)"/>
    <path d="M3207.93 2848.21c5.367 12.026 6.361 27.452 58.589 3.03.628-10.07-9.307-13.1-16.162-18.183 1.676-23.75 1.673-50.018-2.02-81.822 27.33-20.484 37.808-37.597 52.528-55.558 14.38 7.35 25.544 1.835 37.376-1.01 3.383-6.333 7.091-11.366 13.132-7.07 9.652 5.349 20.344 12.085 22.223 7.07 23.79-15.215 20.834-22.788 7.07-27.274-9.057 1.38-18.58 2.297-30.303 1.01-5.388-1.482-10.775-2.782-16.162 1.01-12.822 9.353-16.044 5.904-21.213 5.051 1.536-12.364 19.128-16.7 30.305-24.244 20.045 3.241 20.835-17.069 31.315-10.102 20.203 20.203 32.325 25.591 36.366 16.162 22.993-2.01 13.442-7.635 14.142-12.122 2.065-10.229-11.532-15.237-25.254-20.203-11.092-4.694-15.103-2.307-21.213-2.02-4.894 1.768-7.68 5.834-20.203 0l-10.102 1.01c-4.912-17.117 1.72-29.617 10.102-41.416 9.098 8.951 26.96 10.892 49.498 9.092 13.89-7.16 25.099-.908 36.366 5.05 13.35 13.263 19.975 8.596 17.172-21.213-26.963 2.461-27.557-2.613-37.376-5.05-9.27-5.923-17.294-8.11-21.213 2.02l-16.162-1.01c3.867-6.908 6.013-15.536 20.203-12.122 31.847-1.876 24.243-10.326 8.08-20.203-11.293-4.77-20.682-1.921-29.293 4.04-7.196 1.29-11.967-.655-11.112-10.102-7.78-.816-3.56-10.63-1.01-19.193.317-12.94 1.064-26.416-9.092-26.264-5.618 3.916-14.579 1.148-10.102 25.254 4.825 13.132 15.47 26.264 13.132 39.396-13.04 3.845-23.539 9.723-23.234 24.244-7.052 10.462-12.676 22.71-9.09 46.467-3.437-8.145-10.088-8.787-6.062-34.345 1.601-7.495.899-11.15 10.102-31.315-11.974-28.702-11.363-7.067-16.162-7.07-4.076 9.427-10.578 18.855-7.07 28.283-4.639 31.815-1.184 27.213-1.011 37.376-6.86 39.493-.322 20.926 0 29.294-4.515 6.56-8.47 14.517-18.183 8.082-5.291-3.647-10.858-7.073-3.03-21.213 13.175-24.658 5.713-30.969-5.051-34.346-14.05 1.715-17.691 16.44-21.213 31.316-.465 20.058 4.843 31.458 15.152 35.355-11.892 25.543-18.612 23.893-28.284 26.264-6.188-12.528-2.414-28.378-1.01-43.436 11.225-25.965-.658-32.675-4.041-46.467 6.7-4.447 9.784-16.125 11.112-31.316-3.192-11.613 2.5-20.267 7.071-29.293 4.846 1.082 9.147 3.256 19.193-6.061 12.493-19.371 18.916-34.328 2.02-32.325-8.754 3.171-17.509 4.681-26.264 18.183-3.703 12.144-7.407 12.219-11.112 11.112.013-12.122-4.498-24.244 8.082-36.366 8.882-5.66 11.993-14.207 10.102-25.254-8.126-5.133-14.165-30.091-27.274 12.122-4.353 11.257-10.194 13.59-12.122 39.396-.726 11.306 3.088 20.342 13.132 26.264 3.892 14.73-.04 19.029-4.041 23.234-4.846-1.13-9.697-2.286-17.173-19.193-4.809-6.784-4.262-17.137-1.01-29.294.617-10.873-2.004-17.698-12.122-15.152-2.948 6.478-6.855 10.717-2.02 35.355-1.45 14.698.562 27.666 15.152 34.345 5.802 4.116 12.68 5.815 8.08 33.335 2.337 12.117 10.422 25.67 3.031 35.355-9.134 17.319-5.037 41.255-4.04 63.64-8.229-1.727-12.981-10.403-13.132-28.284-2.24-25.708-.085-55.81-20.203-63.64l-18.183-10.102c6.053 3.696 8.407-8.429 9.091-16.162l3.03-24.244c2.517-6.582 5.34-12.65 0-32.325 6.52-7.462 8.293-16.11 4.041-26.264-7.071-.391-14.142-16.513-21.213 15.152l-3.03 15.152-8.082-21.213-9.091-4.041v-17.173c-1.647-16.572-8.213-23.307-15.152-29.294-5.724-9.54-11.448-9.113-17.173-8.081 1.777 5.724-4.708 11.448 9.091 17.173 7.32 12.75 7.469 21.917 4.041 29.294l-17.173-9.092c-21.218-3.859-1.835 10.737 4.04 19.193 10.169 11.316 18.193 26.918 33.336 28.284l5.05 28.284c-2.126 25.271 9.22 39.765 20.203 54.548 15.601-.71 17.538 16.797 17.173 37.376 12.1 49.58 9.962 43.87 15.152 53.538 7.168 12.112 9.312 21.211 3.03 25.254-11.971-6.687-13.728-15.929-15.151-25.254.037-30.45-7.215-31.749-12.122-42.426-12.438-9.541-32.941-1.337-33.335-37.376-8.712-21.507.302-25.289 4.04-34.345 3.332-15.19-5.018-28.92-23.234-41.416 1.064-7.925 3.816-15.175-8.08-28.284-25.566-14.022-15.57 10.748-13.133 27.274 10.952 6.735 12.57 13.47 10.102 20.203l-17.173-10.102c-2.296-10.07-14.618-14.126-30.304-16.162-1.601-11.112-2.86-22.223-20.203-33.335-22.808-4.406-30.7-13.786-29.294-26.264-3.796-27.09-19.148-31.068-33.335-37.376-8.242 1.523-16.056 3.474-11.112 18.183 35.646 1.303 23.724 9.923 27.274 16.162-1.536 7.698 2.886 16.884 12.122 27.274-15.227-5.462-19.449.081-27.274 2.02-5.638 19.276 7.475 14.44 20.203 10.103 12.458-1.68 24.917-8.619 37.376 10.102 3.756 7.39 5.74 15.372 17.173 20.203l-24.244-1.01c-15.24-14.238-24.087-13.553-31.315-9.092-18.546 5.046-19.11 13.687-25.254 21.213 11.478 16.797 20.46 8.619 29.294-1.01 7.378-7.01 16.544-7.757 29.294 4.04 13.644 1.714 25.384-4.192 41.416 7.072 12.308-.632 24.662-1.58 34.345 16.162-15.71 3.123-34.45 3.82-37.376 17.173-6.841 10.028-1.554 14.543 21.213 11.112 6.897-5.925 12.824-16.694 22.223-10.102 8.585 1.687 12.626 12.46 13.132 30.305 8.17 12.63 9.945 20.996 10.102 28.284-17.51-17.342-23.14-13.896-30.305-13.132-17.488.434 3.051 11.24 13.132 19.193 12.497 7.86 22.467 8.14 32.325 8.08 10.102-2.693 16.162 1.348 18.183 12.123 7.381 18.39 6.528 31.289 6.061 44.447 5.157 12.582 13.503 18.788 21.213 26.264 7.844 6.153 13.337 15.44 13.132 32.325 1.096 20.499-2.185 37.35-17.172 44.447z" color="#000" fill="#154e73"/>
    <path d="M-387.69 2831.1c-.475 10.339 22.144 32.365 26.264 30.305 12.087 1.986 23.901 3.698 33.335 3.03 9.074-7.744 2.673-15.489 2.02-23.234-13.578-6.397-7.645-12.795-9.091-19.193-8.081-3.964-16.162-6.66-24.244 0-14.132-1.006-16.301 2.773-17.173 7.071l-11.112 2.02z" fill="url(#l)" transform="translate(4100.7 -19.29)"/>
    <path d="M-321.02 2812.9c-1.117 6.677 3.656 18.195 13.132 22.223 13.361 12.526 19.964 8.157 28.284 8.081 8.883-2.63 9.918-9.183 8.081-17.173 1.37-1.588 4.51-1.053-7.07-18.183-6.398 8.489-12.796 11.91-19.194-1.01-10.519-4.58-18.306 4.31-23.234 6.06z" fill="url(#m)" transform="translate(4100.7 -19.29)"/>
    <path d="M-316.98 2859.4c-2.743 11.608 5.223 22.391 37.376 31.315 14.142 4.257 28.284 9.766 42.426 1.01 8.128-.771 13.69-5.393 11.112-22.223 0 0 5.112-14.443 1.01-20.203-20.095-28.219-48.842-9.018-47.477-6.06l-20.203 10.101-19.193-8.081-5.05 14.142z" fill="url(#n)" transform="translate(4100.7 -19.29)"/>
    <path d="M-1092.9 2853.2c-77.918 27.022-74.494 57.798-79.286 59.286m122.86-98.571c-19.928 9.935-38.152 19.362-42.857 40.714-41.108-22.435-93.492-22.515-92.857-15m144.29 84.286c1.006-25.668-31.944-50.347-52.143-70.714 32.851-4.024 68.101 5.93 97.143 17.143" stroke-linejoin="round" filter="url(#o)" stroke="#154e73" stroke-linecap="round" stroke-width="3.2" fill="none" transform="translate(4100.7 -19.29)"/>
</svg>
